<svg xmlns="http://www.w3.org/2000/svg" width="375" height="812" viewBox="0 0 375 812">
  <title>7 · Livro · nota</title>
  <rect x="0.5" y="0.5" width="374" height="811" fill="#FFFFFF" stroke="#C9CDD0" stroke-width="1"/>
  <text x="20" y="58" font-family="Inter, sans-serif" font-size="16" fill="#6B7376">‹</text>
  <text x="38" y="58" font-family="Inter, sans-serif" font-size="15" fill="#6B7376">Torto Arado</text>
  <rect x="20" y="74" width="80" height="120" rx="4" fill="#E3E6E8"/>
  <text x="60.0" y="138.32" font-family="Inter, sans-serif" font-size="12" font-weight="400" fill="#6B7376" text-anchor="middle">capa</text>
  <text x="116" y="104" font-family="Inter, sans-serif" font-size="22" font-weight="600" fill="#1F2426">Torto Arado</text>
  <text x="116" y="126" font-family="Inter, sans-serif" font-size="13" fill="#6B7376">Itamar Vieira Junior</text>
  <rect x="116" y="138" width="106.0" height="22" rx="11" fill="#E3E6E8"/>
  <text x="169.0" y="152.96" font-family="Inter, sans-serif" font-size="11" font-weight="600" fill="#6B7376" text-anchor="middle">Você está lendo</text>
  <rect x="20" y="210" width="335" height="128" rx="12" fill="#FFFFFF" stroke="#C9CDD0" stroke-width="1"/>
  <text x="34" y="240" font-family="Inter, sans-serif" font-size="16" font-weight="600" fill="#1F2426">Que nota você dá?</text>
  <circle cx="52" cy="278" r="17" fill="#E3E6E8"/>
  <circle cx="100" cy="278" r="17" fill="#E3E6E8"/>
  <circle cx="148" cy="278" r="17" fill="#E3E6E8"/>
  <circle cx="196" cy="278" r="17" fill="#E3E6E8"/>
  <circle cx="244" cy="278" r="17" fill="#E3E6E8"/>
  <text x="34" y="318" font-family="Inter, sans-serif" font-size="11" fill="#6B7376">Só quem terminou pode avaliar. A nota vai pro perfil.</text>
  <rect x="20" y="350" width="335" height="48" rx="10" fill="#FFFFFF" stroke="#C9CDD0" stroke-width="1"/>
  <text x="187.5" y="379.4" font-family="Inter, sans-serif" font-size="15" font-weight="600" fill="#1F2426" text-anchor="middle">Escrever resenha</text>
  <text x="20" y="436" font-family="Inter, sans-serif" font-size="26" font-weight="600" fill="#1F2426">4,4</text>
  <text x="20" y="454" font-family="Inter, sans-serif" font-size="11" fill="#6B7376">média do clube</text>
  <text x="130" y="422" font-family="Inter, sans-serif" font-size="11" fill="#6B7376">5</text>
  <rect x="146" y="414" width="140" height="8" rx="4" fill="#E3E6E8"/>
  <text x="296" y="422" font-family="Inter, sans-serif" font-size="11" fill="#6B7376">2</text>
  <text x="130" y="440" font-family="Inter, sans-serif" font-size="11" fill="#6B7376">4</text>
  <rect x="146" y="432" width="140" height="8" rx="4" fill="#E3E6E8"/>
  <text x="296" y="440" font-family="Inter, sans-serif" font-size="11" fill="#6B7376">1</text>
  <text x="130" y="458" font-family="Inter, sans-serif" font-size="11" fill="#6B7376">3</text>
  <rect x="146" y="450" width="140" height="8" rx="4" fill="#E3E6E8"/>
  <text x="296" y="458" font-family="Inter, sans-serif" font-size="11" fill="#6B7376">0</text>
  <text x="20" y="483" font-family="Inter, sans-serif" font-size="11" font-weight="600" fill="#6B7376" text-anchor="start">QUEM DO CLUBE ESTÁ NESSE LIVRO</text>
  <circle cx="35" cy="509" r="15" fill="#E3E6E8"/>
  <text x="62" y="514" font-family="Inter, sans-serif" font-size="14" fill="#1F2426">Marina</text>
  <rect x="291.0" y="498" width="64.0" height="22" rx="11" fill="#E3E6E8"/>
  <text x="323.0" y="512.96" font-family="Inter, sans-serif" font-size="11" font-weight="600" fill="#6B7376" text-anchor="middle">Lido · 5</text>
  <circle cx="35" cy="549" r="15" fill="#E3E6E8"/>
  <text x="62" y="554" font-family="Inter, sans-serif" font-size="14" fill="#1F2426">Diego</text>
  <rect x="309.0" y="538" width="46.0" height="22" rx="11" fill="#E3E6E8"/>
  <text x="332.0" y="552.96" font-family="Inter, sans-serif" font-size="11" font-weight="600" fill="#6B7376" text-anchor="middle">Lendo</text>
  <circle cx="35" cy="589" r="15" fill="#E3E6E8"/>
  <text x="62" y="594" font-family="Inter, sans-serif" font-size="14" fill="#1F2426">Caio</text>
  <rect x="303.0" y="578" width="52.0" height="22" rx="11" fill="#E3E6E8"/>
  <text x="329.0" y="592.96" font-family="Inter, sans-serif" font-size="11" font-weight="600" fill="#6B7376" text-anchor="middle">Futuro</text>
</svg>
